P3
# CREATOR: GIMP PNM Filter Version 1.1
64 64
255
230
228
224
255
255
255
255
255
255
255
255
255
195
190
183
190
184
177
213
209
202
255
255
255
255
255
255
255
255
255
236
224
194
221
192
142
224
213
188
255
255
255
255
255
255
255
255
255
255
255
255
255
255
255
254
255
252
255
255
255
242
238
233
225
215
203
226
217
200
251
248
239
255
255
255
255
255
255
254
253
251
246
233
215
244
230
214
255
255
255
254
254
251
255
255
255
208
199
187
239
233
224
255
255
255
255
254
253
255
255
255
239
229
218
254
254
252
244
244
243
213
203
172
252
242
217
253
252
249
255
254
253
255
254
252
254
254
252
254
253
251
255
255
254
253
253
248
255
255
255
254
254
248
253
249
241
254
253
241
243
230
217
231
219
208
211
199
189
189
183
183
161
160
166
198
188
182
207
195
185
212
197
188
219
202
185
227
216
200
216
208
195
239
235
231
254
254
254
255
255
255
255
255
255
203
203
201
194
195
192
213
210
206
255
255
255
253
254
252
253
252
244
241
230
199
228
200
148
221
209
182
255
255
255
255
255
255
255
255
255
255
255
255
255
255
255
254
254
251
255
255
254
252
251
249
247
245
241
217
208
191
248
243
234
255
255
255
255
255
255
255
255
255
246
236
225
241
227
212
255
255
255
254
254
251
255
255
255
220
215
210
240
236
231
255
255
255
255
254
253
255
255
255
252
252
251
255
255
255
242
242
240
243
235
217
246
242
221
254
254
254
255
254
253
255
254
253
255
255
254
255
254
254
255
255
254
244
243
235
238
234
209
254
253
246
249
239
225
252
238
220
216
206
197
140
129
127
124
115
113
119
110
110
119
110
107
168
157
150
159
152
149
138
135
139
126
124
128
116
113
118
109
104
106
239
237
233
254
253
253
255
255
255
255
255
255
136
127
112
126
108
81
243
240
228
255
255
255
243
241
224
253
251
241
246
240
217
225
196
145
219
205
177
255
255
255
255
255
255
247
242
238
246
242
240
251
249
248
254
254
251
255
255
254
244
241
238
238
235
229
205
196
186
207
198
187
255
255
255
255
255
255
255
255
255
247
236
221
241
226
209
255
255
255
254
254
252
255
255
255
225
221
217
239
235
229
255
255
255
255
254
253
255
255
255
249
245
242
255
255
255
242
241
239
249
247
236
249
239
213
255
254
253
255
254
253
255
254
254
255
255
255
255
255
255
255
254
253
231
227
219
227
223
216
255
254
242
245
235
220
220
205
189
161
155
154
145
141
141
126
119
117
114
106
103
103
99
100
87
86
91
85
84
91
86
84
86
86
83
85
81
81
89
76
76
84
223
219
212
251
250
247
255
255
255
255
255
255
193
186
176
221
220
212
255
255
255
255
255
255
246
246
228
250
248
234
246
241
219
222
192
142
215
200
169
255
255
255
255
255
255
213
205
198
207
200
195
238
233
228
255
255
254
255
255
254
246
243
239
237
231
224
217
210
202
247
242
235
255
255
255
255
255
255
255
255
254
245
234
221
239
225
208
255
255
255
254
254
251
255
255
255
214
210
204
236
232
226
255
255
255
255
254
253
255
255
255
253
252
249
255
255
255
242
241
240
246
241
228
247
241
219
254
253
252
255
254
252
255
254
252
255
255
254
254
254
254
255
255
254
249
245
239
245
238
229
223
210
190
176
156
126
138
114
89
121
112
107
90
87
88
92
96
102
100
110
120
103
118
130
102
109
107
101
106
106
97
106
109
85
92
108
85
84
90
95
108
123
217
212
203
248
247
245
255
255
255
255
255
255
185
183
172
224
222
216
255
255
255
255
255
255
224
219
200
250
249
236
248
244
223
218
191
141
212
194
161
255
255
255
255
255
255
223
209
201
214
203
195
234
226
220
255
255
255
255
255
252
245
243
239
236
231
225
218
211
203
240
231
223
255
255
255
255
255
255
255
255
255
245
235
222
241
227
212
255
255
255
254
254
251
255
255
255
214
211
206
236
231
226
255
255
255
255
255
253
255
255
255
252
249
247
255
255
255
241
241
239
249
247
241
248
243
224
254
254
253
254
254
252
255
254
253
255
255
254
255
255
255
238
235
231
185
170
150
180
163
138
130
112
83
126
112
90
101
84
65
92
92
96
90
98
105
114
128
144
113
128
142
116
133
145
123
132
131
109
114
107
115
123
125
86
89
102
82
82
89
96
119
145
232
217
205
251
250
245
255
255
255
255
255
255
176
172
163
214
212
207
255
255
255
255
255
255
222
212
186
249
246
233
249
246
223
217
188
140
205
186
148
255
255
255
255
255
255
255
255
253
255
255
252
255
255
253
255
254
252
254
253
248
243
241
236
227
220
209
202
195
188
234
227
219
251
250
248
247
247
245
255
255
255
244
233
218
240
224
207
255
255
255
255
255
253
255
255
255
201
199
193
233
229
224
255
255
255
255
255
254
255
255
255
251
248
244
255
255
255
244
244
243
249
248
243
248
242
221
253
252
250
253
251
249
253
252
251
255
255
255
239
236
230
167
152
133
182
161
134
172
151
113
163
145
108
136
112
86
134
106
80
95
91
92
114
117
117
118
130
141
149
171
174
137
159
171
150
173
169
131
149
154
122
130
128
83
86
100
84
87
97
98
110
123
174
147
137
195
177
168
255
255
252
255
255
255
180
176
165
207
206
198
254
254
251
255
255
255
218
207
182
229
220
198
249
245
222
217
189
143
200
179
140
255
255
248
255
255
252
255
255
255
255
255
255
255
255
255
248
244
237
255
255
254
255
255
255
244
241
237
203
193
184
209
202
195
246
241
234
218
210
200
255
255
255
236
226
215
219
203
186
248
246
237
233
225
214
255
255
255
223
220
213
225
217
206
248
248
242
238
230
217
255
255
255
251
246
241
250
247
240
229
222
211
245
242
232
250
245
228
249
247
235
239
224
197
242
230
212
234
232
230
149
139
126
155
133
110
155
132
101
162
145
105
158
127
78
137
129
106
124
100
78
111
98
94
140
124
96
141
144
132
148
151
143
134
152
164
135
153
165
126
145
156
112
118
121
85
87
98
83
89
102
101
111
114
97
96
94
87
84
85
173
163
166
255
255
255
190
187
182
199
198
194
253
253
248
255
255
255
222
210
187
239
235
216
248
244
221
218
190
145
197
176
137
255
255
254
255
254
251
255
255
255
255
255
255
255
255
255
249
247
243
253
250
243
255
255
255
255
254
254
216
206
196
191
178
165
234
221
206
221
213
201
255
255
255
255
255
255
225
209
191
248
244
235
246
241
231
253
252
250
255
255
255
249
247
245
246
240
229
247
242
233
253
253
253
255
255
255
255
255
254
220
216
204
208
202
171
228
222
187
206
205
157
208
209
152
210
205
169
163
158
156
109
93
68
154
141
116
138
117
87
147
122
95
163
134
107
150
119
82
112
90
72
95
88
81
124
102
69
148
134
99
133
130
102
127
138
131
138
148
150
129
134
126
101
96
91
87
83
87
85
89
105
112
120
125
109
104
108
120
122
132
152
122
136
253
239
239
231
230
228
218
218
214
224
219
207
243
241
237
242
238
219
241
234
213
240
227
196
193
172
141
194
173
140
254
253
242
254
253
248
236
235
231
254
253
250
255
255
254
255
255
255
225
221
216
255
255
255
255
255
255
227
221
216
223
214
205
220
208
185
214
205
190
255
255
255
255
255
255
255
255
255
255
255
255
255
255
255
255
255
255
255
255
255
255
255
255
255
255
255
246
247
230
250
250
244
246
248
231
236
239
204
198
201
168
177
183
126
195
207
133
209
218
150
152
163
100
116
113
105
64
67
73
102
109
101
183
167
142
165
127
93
156
127
97
147
123
98
149
122
99
106
81
73
110
97
78
142
125
108
145
127
110
136
112
80
109
98
72
123
111
87
135
129
107
102
87
74
94
80
70
89
92
105
115
117
113
234
144
146
248
127
131
238
122
130
216
142
147
240
210
200
237
225
208
204
195
177
234
227
220
246
238
223
238
227
203
239
225
194
211
192
166
214
194
168
247
248
231
245
246
234
224
226
207
243
242
231
246
242
227
224
218
187
222
212
185
237
228
203
222
212
187
196
186
159
178
171
144
179
173
150
174
170
155
179
175
164
175
174
167
172
173
169
173
174
170
174
175
175
178
180
179
185
187
186
194
196
193
203
205
204
207
207
188
212
215
177
212
219
162
204
215
144
161
168
124
171
191
108
189
203
126
214
220
160
210
204
156
122
107
76
46
39
29
116
114
108
151
125
100
142
126
100
176
129
100
157
125
99
139
96
77
101
81
76
159
124
93
147
114
90
128
109
85
149
113
84
143
112
82
129
112
85
160
149
124
120
97
80
123
103
85
93
86
86
125
115
94
251
100
92
253
105
93
242
115
110
233
137
123
216
157
128
191
197
130
197
186
125
190
182
127
208
192
142
180
178
108
193
189
127
236
221
180
212
194
149
181
183
113
204
193
133
219
203
140
197
184
131
161
155
125
130
133
125
104
114
124
91
108
134
90
113
146
91
118
158
98
126
163
105
133
168
120
149
174
107
137
175
113
144
180
149
171
188
147
171
191
147
174
191
132
164
189
115
149
190
120
154
193
128
160
196
134
165
199
131
161
195
125
151
180
147
161
171
163
168
147
171
173
115
221
208
181
154
135
102
183
169
145
149
131
108
144
124
92
204
196
181
178
177
182
174
168
167
172
159
150
164
150
142
141
126
117
158
140
131
176
152
135
168
151
131
172
134
105
134
106
86
132
102
78
146
126
102
130
109
88
96
77
63
96
79
67
91
83
83
127
112
89
250
129
118
255
148
133
255
142
127
255
114
104
207
114
100
170
177
104
170
180
107
194
191
136
191
188
135
190
186
131
188
189
127
219
215
165
207
193
151
153
151
127
108
118
126
84
104
135
78
106
151
94
124
164
100
132
170
118
148
176
142
164
181
171
179
186
205
208
193
197
212
189
201
214
189
186
203
186
186
202
190
116
140
170
114
131
173
165
157
192
166
159
193
183
195
196
201
223
199
179
204
197
174
199
201
174
200
205
185
209
212
185
209
219
164
196
225
160
190
223
180
177
174
166
143
115
135
102
75
133
106
88
178
166
150
192
179
160
138
126
119
117
112
111
124
125
128
124
126
132
126
124
125
123
119
116
113
104
98
106
100
98
113
109
112
123
122
127
130
130
138
132
133
141
134
136
145
136
132
132
131
125
123
131
125
123
125
121
123
126
122
113
233
165
128
214
151
138
230
161
144
248
132
119
224
130
124
216
202
152
197
197
135
215
204
151
222
202
149
232
200
161
192
181
115
211
194
137
96
108
125
112
126
163
125
141
174
121
139
173
179
190
187
190
197
190
190
194
185
195
190
185
201
193
189
223
206
197
234
214
201
225
208
198
118
148
183
114
147
182
109
142
181
104
138
181
108
143
184
115
145
185
153
146
184
156
153
188
204
210
197
227
219
206
218
221
209
223
229
213
216
218
210
226
227
220
217
223
224
186
208
230
180
208
238
136
134
132
105
87
75
149
118
100
180
153
125
143
107
85
135
102
79
118
91
73
111
102
102
114
103
96
115
89
71
118
94
84
89
90
100
92
87
87
94
95
99
93
93
95
93
90
89
91
88
86
91
83
77
91
80
70
87
83
84
94
85
80
94
86
83
96
87
84
232
227
187
204
197
186
204
196
189
204
157
145
193
121
110
220
185
151
229
190
154
208
180
131
221
182
137
198
173
125
205
177
136
189
176
138
84
107
145
150
147
179
144
140
176
163
150
182
182
177
184
184
187
185
197
194
191
196
190
189
197
196
193
197
193
192
188
194
191
177
186
189
106
138
179
102
137
180
99
133
176
104
133
177
109
135
179
114
138
181
147
139
180
149
142
183
188
188
201
237
231
225
238
236
228
231
232
222
232
232
231
224
231
226
226
230
228
181
199
223
163
195
229
182
208
232
92
94
96
167
132
120
167
140
112
151
115
91
149
110
89
133
95
71
124
86
65
122
98
82
84
80
81
105
95
90
98
91
94
104
94
90
102
96
100
103
103
116
96
96
107
92
93
100
91
88
87
89
84
81
84
83
88
88
84
85
88
86
93
89
84
86
136
123
114
137
126
120
120
106
97
113
100
91
176
155
136
244
227
205
240
222
198
228
210
185
221
204
179
242
225
208
221
210
192
167
162
139
102
117
157
155
141
177
150
136
174
151
137
175
160
155
181
204
206
204
205
206
203
203
205
203
209
209
206
202
203
202
200
201
203
188
192
197
186
191
198
146
167
192
139
142
178
138
133
174
141
133
175
142
134
175
141
136
177
140
137
179
160
161
192
219
224
227
221
226
228
225
229
230
226
230
232
227
231
233
228
232
234
150
180
214
155
189
224
169
199
230
183
206
227
159
132
121
166
133
105
159
113
89
138
100
80
130
91
70
120
87
69
77
70
68
85
86
93
80
74
73
102
85
73
103
83
68
125
94
76
124
90
70
126
100
82
122
97
83
95
81
71
101
86
73
102
90
84
98
89
87
55
52
51
59
56
57
96
82
70
96
85
78
50
42
35
57
48
40
121
107
94
214
189
164
218
193
169
213
188
164
209
186
164
213
193
173
205
187
154
141
145
138
118
125
166
146
134
172
143
128
168
141
126
168
140
124
167
197
193
195
208
204
202
208
206
203
200
201
202
197
200
202
200
202
204
198
201
205
198
202
205
158
165
188
148
139
179
129
127
171
129
128
172
130
129
174
130
131
176
129
134
177
132
138
180
161
164
195
179
194
209
199
207
217
202
211
220
208
216
225
204
214
224
140
172
211
152
185
220
158
189
222
177
206
236
172
179
190
153
125
103
126
114
100
108
102
103
87
87
90
91
79
73
91
74
60
74
73
78
38
42
47
51
52
59
67
67
72
40
44
48
49
53
53
39
45
52
61
58
63
51
47
46
97
80
67
91
80
75
129
122
122
133
135
140
114
122
132
79
69
63
108
98
93
94
84
76
85
72
60
137
119
104
216
200
184
225
208
191
233
217
199
195
186
181
197
174
169
208
185
142
119
128
135
121
125
166
136
125
167
133
121
163
130
119
162
128
117
160
149
139
174
142
155
184
118
144
177
107
137
174
108
139
175
114
142
177
110
140
176
111
138
176
157
150
184
142
135
174
115
122
169
115
124
169
120
128
172
122
130
174
126
135
178
139
141
181
159
153
188
139
158
194
170
189
209
204
212
220
211
217
223
213
219
225
137
171
208
164
193
222
159
190
224
158
188
220
167
191
216
104
111
120
191
172
124
210
199
168
181
174
154
83
80
81
60
61
65
33
36
43
23
25
29
31
34
39
31
34
39
71
75
80
83
85
86
56
60
60
23
26
31
35
39
47
40
46
53
51
55
61
63
65
74
64
77
101
76
70
68
112
97
81
131
117
104
157
140
123
161
145
128
181
166
152
209
196
186
202
190
180
165
158
153
89
100
131
126
92
119
214
189
141
99
112
125
117
122
166
125
123
165
123
120
162
120
118
161
117
117
159
131
131
168
127
142
177
105
136
173
108
138
175
98
129
169
90
123
166
87
121
165
98
124
167
156
147
182
148
138
175
149
138
175
149
137
176
147
134
174
145
134
174
146
135
176
148
140
179
151
144
182
154
155
189
125
157
194
169
189
210
180
196
213
190
202
218
138
170
205
158
187
218
159
187
218
156
188
223
156
179
206
117
136
155
121
119
90
213
190
106
216
196
128
133
119
70
72
72
82
43
45
49
59
62
70
66
70
82
66
68
77
74
74
76
79
77
79
77
79
86
63
66
75
40
43
47
57
66
79
48
51
58
58
74
82
54
67
77
49
61
76
174
166
165
167
161
161
175
169
169
183
175
167
205
193
158
211
198
159
212
200
169
125
120
116
88
96
118
136
104
121
217
195
144
67
72
77
125
114
143
141
136
175
140
131
170
134
133
172
99
126
168
115
137
171
137
155
177
141
158
179
144
162
182
152
170
190
149
168
189
145
163
186
129
144
177
152
143
177
148
138
175
153
144
176
152
149
181
148
137
178
147
137
178
151
154
186
151
159
192
151
146
184
161
158
190
128
152
188
114
149
189
132
162
196
157
179
204
166
187
212
171
193
220
158
184
213
140
169
205
157
183
212
172
192
213
83
100
113
145
123
48
165
130
24
97
85
54
74
74
82
57
57
64
50
52
57
40
41
43
49
52
58
48
51
58
47
51
58
48
51
57
52
55
62
58
60
65
49
53
62
53
55
62
51
61
79
70
74
77
61
63
66
164
158
158
155
150
151
157
151
148
206
190
146
210
190
117
213
192
109
216
195
114
217
198
133
97
102
116
142
110
122
215
194
142
68
81
105
117
73
86
145
134
172
139
136
173
87
124
168
119
138
170
119
144
173
106
135
170
106
136
172
107
138
173
109
140
176
108
141
179
104
139
178
122
153
185
152
160
188
131
129
160
97
110
130
71
86
104
53
57
69
65
70
90
55
63
76
55
67
82
96
108
125
116
133
154
122
145
173
115
138
167
103
120
142
90
107
133
63
73
87
39
45
56
30
35
40
25
26
24
33
39
44
44
49
55
65
74
84
87
95
94
31
30
21
36
38
40
65
66
70
68
70
79
25
26
25
19
21
21
39
40
42
49
50
52
48
49
53
50
51
53
39
41
45
36
38
43
20
22
23
33
33
35
52
37
23
48
36
15
45
35
17
166
161
161
163
160
161
143
136
128
169
141
47
181
150
32
194
165
58
200
174
72
201
170
52
131
114
76
137
100
105
206
188
129
63
79
113
126
108
135
119
115
130
125
148
179
107
132
166
112
138
170
101
129
167
94
124
163
97
127
165
95
124
165
91
117
156
77
97
124
63
78
98
51
59
71
29
34
43
19
25
33
15
19
28
18
24
34
30
37
49
43
51
62
54
66
86
71
75
78
89
91
83
99
99
88
111
111
97
123
127
120
129
131
123
110
99
53
119
105
49
130
116
57
133
119
57
137
123
57
149
138
87
147
134
80
150
138
92
148
140
99
157
142
85
143
131
86
111
107
98
64
65
71
43
46
51
16
17
17
22
23
24
20
20
20
20
20
19
20
21
21
22
23
23
21
22
22
18
18
16
23
22
19
28
23
12
22
19
11
24
22
14
167
164
165
174
168
166
137
130
112
163
141
91
120
90
30
110
78
8
120
85
9
124
83
0
161
138
102
159
140
102
192
178
118
56
79
118
80
106
146
53
67
85
69
96
137
63
91
135
62
89
132
62
88
131
82
101
132
70
84
102
58
61
65
70
74
73
92
96
93
114
116
101
130
129
106
141
137
99
155
145
98
160
144
73
184
165
84
196
174
84
200
183
117
200
187
147
217
200
136
209
190
113
214
197
132
216
202
146
217
205
156
218
208
167
228
220
197
211
200
157
212
207
181
225
218
195
232
225
200
245
239
221
249
245
227
251
249
235
231
222
187
202
183
109
197
179
113
195
174
105
210
197
156
111
111
107
24
25
25
25
27
26
24
26
25
22
24
24
23
25
24
22
24
23
23
24
24
21
21
19
19
20
18
11
12
10
11
12
11
10
12
11
167
163
163
218
204
180
159
146
119
215
190
143
205
189
151
212
196
148
230
213
174
162
131
35
186
159
59
167
144
43
188
169
93
109
117
121
115
128
135
113
115
104
135
139
126
154
154
133
139
141
129
95
100
99
159
146
99
177
155
81
200
179
104
209
186
99
216
196
115
219
200
130
218
200
133
214
198
135
214
201
148
216
205
163
214
203
156
220
214
188
224
212
171
225
212
166
223
211
166
225
213
172
226
214
178
227
216
189
228
220
200
229
224
210
229
229
223
232
232
229
235
234
227
239
237
229
230
227
214
232
232
225
232
228
218
233
230
219
236
235
229
238
236
228
227
220
190
210
195
135
199
177
93
221
207
150
182
176
152
87
83
66
21
23
22
25
27
27
25
26
26
24
25
25
24
25
25
23
24
22
19
20
19
11
13
11
10
12
11
11
13
12
175
166
153
201
182
137
178
158
109
187
167
122
185
168
119
233
225
205
186
167
127
154
128
69
189
160
66
185
157
40
204
180
78
224
204
134
208
188
124
218
202
152
217
202
142
221
206
150
218
204
152
213
195
125
216
198
130
215
196
124
216
196
120
218
199
131
219
201
135
220
201
136
220
203
142
222
207
155
224
208
157
226
211
161
225
211
163
227
211
163
227
212
167
227
211
162
225
205
136
224
204
132
225
207
145
225
210
165
225
215
188
227
219
203
227
221
206
227
224
213
228
228
220
231
231
227
229
229
224
229
229
222
230
229
222
230
229
222
230
230
225
231
232
229
232
233
231
233
235
235
232
233
227
217
206
159
204
183
101
225
222
205
162
151
108
30
30
24
21
22
22
21
23
22
22
24
24
22
22
22
21
23
22
10
12
10
12
13
12
11
13
12
156
144
120
187
172
133
164
144
102
163
144
105
157
134
76
173
154
109
200
184
156
184
168
130
184
155
79
199
168
92
195
170
62
213
187
108
218
194
117
217
200
141
227
215
174
222
208
160
212
194
124
217
198
129
220
201
134
221
203
140
221
202
136
223
205
142
222
205
139
224
206
144
224
206
138
226
207
144
225
205
133
224
204
128
226
204
126
227
206
140
226
207
147
225
210
158
226
210
160
225
210
162
222
209
166
221
208
165
221
207
161
222
208
164
223
210
170
223
212
177
224
214
187
225
218
199
226
222
207
227
221
207
227
223
209
228
224
211
228
224
212
228
226
214
228
226
217
228
228
220
229
229
224
231
233
233
232
233
231
219
215
190
226
223
207
192
174
104
78
69
33
17
18
18
17
19
18
15
17
16
15
17
16
14
15
15
13
14
13
12
14
13
95
90
80
147
133
93
154
132
84
147
127
79
156
136
92
147
129
80
170
154
118
201
188
167
185
176
141
187
159
79
219
185
121
217
189
120
214
185
95
212
198
147
214
196
127
219
201
146
225
210
160
219
205
154
214
195
125
223
204
130
221
205
143
222
207
153
222
204
138
222
202
131
224
203
128
224
203
126
224
205
136
225
208
150
224
209
162
224
209
161
223
210
167
224
213
177
224
214
180
223
213
178
223
214
182
223
212
179
222
211
170
221
207
156
221
205
149
221
205
149
221
207
159
222
211
176
224
215
187
224
215
190
224
215
191
224
216
191
224
216
192
225
216
194
225
218
197
225
219
200
226
220
204
227
222
207
227
223
212
227
225
215
220
217
201
222
215
186
206
183
96
114
98
45
10
13
15
15
17
15
15
16
16
14
16
15
14
16
15
13
15
14
60
60
58
115
105
74
142
121
70
136
116
66
139
120
72
136
116
64
140
117
59
168
152
114
198
194
178
185
176
139
198
167
93
221
190
129
213
187
107
212
192
127
213
194
124
216
194
111
218
197
121
221
201
125
219
203
147
213
196
138
215
197
132
221
201
122
222
202
125
223
201
115
223
202
122
223
204
137
222
205
145
222
206
149
222
207
157
222
210
167
222
211
171
222
210
170
222
210
170
222
210
170
222
210
168
222
210
168
222
209
168
222
209
166
221
208
164
221
208
162
221
208
163
222
209
165
222
210
168
222
211
170
222
211
172
223
211
173
223
211
174
223
212
176
223
212
178
223
213
181
223
213
183
223
214
186
223
215
188
223
215
191
221
212
187
217
205
165
221
208
163
214
191
97
142
122
57
60
54
48
46
44
40
40
38
35
28
26
22
14
15
13
64
64
63
82
73
51
139
118
62
132
113
65
129
111
63
138
119
75
125
101
39
135
113
50
173
167
146
185
181
161
182
169
119
200
173
103
218
188
120
210
187
111
212
192
123
215
193
114
216
194
112
217
196
121
219
198
122
219
202
143
221
203
141
209
188
119
220
199
119
222
202
131
222
205
144
220
205
154
220
206
158
220
206
158
220
206
156
220
206
156
220
206
154
221
206
153
221
206
152
221
205
152
221
205
151
221
205
150
221
205
150
221
205
150
221
205
150
221
205
150
221
205
150
221
205
150
221
205
152
221
206
153
221
206
155
221
206
156
221
206
157
221
206
159
221
207
160
221
208
163
222
208
165
221
208
168
222
210
171
222
209
172
222
210
172
211
197
150
222
207
154
209
192
133
164
157
117
98
85
39
24
25
27
32
32
31
48
47
47
65
60
59
80
80
76
79
82
83
136
117
68
127
110
68
125
107
64
134
117
76
131
111
61
123
96
27
145
129
80
163
152
119
197
194
182
193
168
100
214
185
119
210
187
115
209
190
124
212
191
121
213
193
124
216
195
114
217
196
117
218
198
123
218
200
134
223
209
164
211
197
155
213
198
145
218
203
148
220
204
147
219
203
145
220
203
142
220
203
141
220
203
139
220
203
138
221
202
136
221
202
135
221
203
134
222
202
135
221
203
134
221
203
133
221
202
134
221
203
134
221
203
135
221
202
136
221
202
136
221
202
136
221
204
138
221
203
139
221
203
141
220
203
143
221
203
144
221
203
146
220
203
148
221
204
150
221
204
153
220
205
157
220
206
160
221
207
164
211
196
146
223
204
142
195
187
152
192
206
229
173
173
158
62
56
29
18
21
22
16
18
16
12
15
14
101
98
94
73
77
84
126
108
60
123
108
70
122
106
70
122
105
63
138
123
84
126
104
48
122
97
27
143
125
72
158
138
84
199
180
135
217
186
121
208
186
120
208
192
138
210
197
160
210
197
153
212
195
138
212
198
146
215
197
137
216
199
138
217
200
135
220
203
144
218
208
173
201
184
128
220
202
133
219
200
131
219
200
129
220
200
127
220
200
126
220
200
124
220
200
124
220
200
123
220
200
122
221
200
122
221
200
122
221
200
123
221
200
122
221
200
122
221
200
123
221
200
123
221
200
124
221
200
125
220
200
127
220
200
128
220
200
130
220
200
132
220
201
133
220
201
136
220
201
137
220
201
140
220
201
143
220
202
146
219
202
148
220
203
152
211
193
138
223
202
130
198
188
143
182
197
218
184
192
206
129
129
115
44
44
37
29
32
37
25
27
31
109
110
110
65
67
70
109
94
59
119
103
64
115
100
64
117
101
63
120
102
59
134
117
73
122
100
37
126
115
82
140
118
58
189
168
117
208
178
102
208
186
120
207
195
158
206
197
164
207
195
153
207
193
140
208
187
107
201
185
123
202
186
124
201
184
122
202
184
113
217
196
115
219
205
156
195
177
116
216
195
116
220
199
118
220
198
117
220
199
116
220
199
116
220
199
115
220
199
114
220
199
113
220
198
113
220
198
114
220
199
114
220
198
114
220
199
115
220
199
116
220
199
117
220
199
119
220
199
120
220
199
122
220
199
122
220
199
124
219
199
126
219
199
129
219
199
131
219
200
133
219
200
135
219
200
139
219
200
141
219
201
142
220
201
144
208
190
131
222
201
126
204
186
131
173
189
215
190
202
220
166
170
175
123
123
112
94
101
114
72
76
85
113
114
114
68
70
72
78
69
45
123
108
72
121
107
74
120
106
72
117
101
60
127
112
70
125
106
55
129
110
59
139
119
72
147
126
63
195
166
71
205
189
139
201
188
140
204
193
154
205
193
154
205
190
140
169
163
126
164
174
178
182
191
199
178
189
201
155
165
172
148
148
128
199
178
99
219
201
135
199
181
119
214
192
108
219
197
111
219
196
110
219
196
110
219
196
110
218
196
110
219
197
111
219
197
112
219
197
112
219
197
114
219
198
115
219
198
116
220
198
118
219
198
119
220
198
120
221
197
120
220
199
126
220
199
127
219
198
125
219
198
130
219
199
131
219
199
131
218
198
134
218
198
138
218
198
139
218
199
141
218
199
142
219
200
144
198
180
122
210
187
113
206
185
124
180
190
206
192
201
217
156
162
172
154
149
118
88
95
102
114
124
142
117
118
117
77
80
82
98
95
89
125
109
71
115
102
66
114
102
69
119
106
71
122
107
67
133
119
80
133
118
75
138
123
84
126
104
41
153
126
36
189
162
38
191
161
29
193
163
32
200
177
88
180
167
119
157
170
186
172
185
201
187
198
210
180
194
210
161
174
191
164
179
198
147
152
149
206
184
103
221
201
125
183
164
97
210
188
103
219
196
108
218
196
110
218
196
111
218
196
113
219
196
115
219
197
117
219
197
118
219
198
121
219
198
124
219
198
125
219
199
127
220
199
129
219
200
133
208
202
169
204
194
163
200
189
151
203
194
159
218
193
105
216
190
96
216
192
107
216
193
110
216
196
127
217
197
132
217
198
142
217
199
144
217
200
148
200
181
112
219
204
142
217
204
161
184
179
147
179
189
202
150
156
167
158
157
132
90
78
31
6
7
6
132
132
126
71
72
73
74
74
67
119
103
61
110
99
67
105
93
62
108
94
60
110
95
55
115
98
53
125
108
63
116
102
62
43
39
18
128
102
21
173
144
31
189
159
27
189
160
26
199
169
43
129
129
111
122
138
157
152
168
186
170
185
204
176
192
210
157
172
192
156
170
188
149
165
187
162
158
128
215
193
110
220
199
123
196
174
103
206
184
106
219
197
116
218
196
120
218
198
124
219
199
128
219
199
131
219
199
134
219
199
131
219
199
130
219
199
131
219
198
128
218
196
118
218
200
137
192
182
154
208
203
183
203
192
157
184
174
137
214
190
100
213
188
89
213
189
93
214
191
109
214
191
106
213
192
110
213
193
118
213
193
122
212
193
126
200
182
110
217
204
152
213
200
153
205
186
107
167
172
172
143
155
175
180
179
159
147
123
29
14
13
6
121
122
117
77
78
80
52
55
54
107
93
52
120
102
61
101
91
64
100
89
58
104
89
55
105
91
51
118
101
56
65
55
31
5
7
7
73
58
16
150
120
29
180
151
31
180
149
30
180
150
37
142
141
121
165
174
188
190
200
213
206
217
230
163
180
204
191
204
221
204
215
229
206
215
226
173
183
198
200
180
106
215
195
123
219
199
127
161
143
81
207
190
125
219
199
137
219
200
138
219
200
139
218
199
138
218
200
139
217
197
126
214
192
107
214
192
102
214
191
103
215
193
105
214
190
95
210
186
92
177
159
96
181
160
84
213
187
84
214
191
105
213
189
96
213
191
106
213
191
112
210
189
111
206
184
99
203
182
103
202
182
110
193
173
100
212
195
121
208
188
107
205
181
77
204
178
70
197
175
78
182
177
147
210
197
143
155
126
29
44
38
12
110
112
115
59
60
63
75
82
86
63
59
49
113
98
62
123
107
63
92
80
57
97
85
54
101
86
49
112
95
54
37
32
17
16
16
15
42
42
45
141
112
21
185
154
24
186
155
21
188
156
20
167
156
104
130
139
154
149
158
170
164
172
182
190
193
209
171
186
206
168
182
202
203
212
223
232
240
250
175
165
116
211
196
138
212
195
134
219
203
136
185
170
111
203
185
118
214
195
123
214
194
118
214
195
122
214
195
121
213
192
109
214
192
106
218
199
125
220
202
131
222
202
130
223
202
122
223
200
109
216
193
101
195
173
81
173
152
66
154
138
81
133
119
66
117
107
66
103
96
67
82
76
50
80
78
63
61
61
51
54
54
46
85
81
61
208
189
112
201
175
65
201
175
62
201
174
57
199
170
50
202
175
64
195
170
64
167
140
48
75
66
23
106
108
116
74
75
82
58
59
62
7
9
9
55
51
39
115
97
50
125
109
70
89
77
49
95
81
46
105
90
50
25
23
12
19
19
19
30
31
32
102
83
32
180
149
20
185
155
18
184
152
13
190
165
56
157
160
154
139
152
168
146
154
167
176
181
192
153
164
179
146
158
173
154
165
180
200
207
217
190
178
121
217
206
161
217
205
162
214
202
149
215
199
140
166
153
102
214
199
141
210
191
120
206
186
104
206
184
97
199
176
74
178
158
75
150
137
81
123
112
65
92
85
45
66
60
31
49
48
37
29
32
30
37
40
41
36
39
40
45
49
52
53
57
62
46
50
53
42
44
48
62
66
73
43
46
50
46
49
54
58
60
62
140
132
93
203
180
82
198
170
52
198
171
52
188
161
51
155
143
118
137
121
73
187
158
37
167
136
27
109
95
35
95
95
100
81
81
85
49
51
51
8
10
9
6
9
7
52
47
31
113
97
52
115
99
58
86
72
40
98
82
43
20
19
13
17
19
18
43
42
41
60
53
31
166
135
13
185
153
15
183
151
12
183
151
14
188
169
82
191
191
178
230
234
241
248
249
252
177
183
194
151
159
175
141
150
168
169
166
138
209
192
122
210
194
124
211
193
118
211
192
113
207
187
98
212
192
106
150
136
78
71
67
43
64
62
45
48
49
43
38
42
46
37
41
47
42
47
53
47
52
58
53
58
63
58
62
68
55
60
67
56
60
65
56
60
66
50
54
59
53
57
62
44
49
53
47
52
57
49
53
57
41
45
49
48
53
57
41
44
48
42
45
50
192
171
79
195
168
51
195
167
47
196
166
42
152
136
112
147
145
154
123
123
124
168
143
39
169
138
29
128
110
36
87
86
86
83
82
82
27
29
28
7
9
8
6
8
7
8
8
6
66
58
38
113
96
51
109
94
58
90
76
39
22
21
12
16
17
17
34
35
35
41
38
27
139
110
8
185
154
12
182
150
11
181
148
13
180
149
15
199
176
76
201
186
126
201
197
172
198
199
191
177
178
165
182
171
118
206
189
117
200
177
72
198
173
54
198
171
52
199
173
54
198
172
52
198
171
49
205
186
103
106
103
85
51
55
59
62
67
74
57
62
67
56
61
67
46
50
53
54
57
62
54
58
64
63
67
73
44
48
53
40
45
50
46
52
57
44
49
52
33
36
38
46
49
52
49
53
56
57
62
66
38
41
44
53
56
60
50
54
58
111
106
78
203
176
57
191
163
41
193
164
42
175
152
62
113
103
109
115
113
117
97
100
100
168
143
44
168
137
25
137
115
35
78
78
76
71
72
71
58
60
61
35
39
39
26
28
29
22
24
23
27
24
21
66
58
39
114
96
51
110
93
52
32
30
16
23
26
31
42
44
46
24
24
23
114
88
7
185
154
14
182
149
13
180
147
13
179
147
17
179
147
15
189
163
40
199
174
67
204
182
87
204
182
87
204
181
83
193
165
48
183
155
40
188
159
37
198
170
48
197
170
50
195
168
45
195
167
44
196
169
48
199
180
107
70
72
71
49
54
62
44
48
51
51
55
60
47
52
56
50
54
59
45
49
51
51
54
57
53
59
62
50
54
59
45
50
53
50
54
59
54
59
64
50
54
58
47
51
55
50
54
59
47
51
57
46
50
56
46
50
55
182
160
64
192
164
44
189
160
37
189
159
31
167
150
82
131
136
145
141
147
152
129
131
121
181
153
48
166
133
20
137
113
27
76
76
75
71
73
72
66
69
69
59
62
63
50
52
56
39
41
44
29
30
30
30
29
26
70
62
39
107
91
50
41
38
22
25
28
34
47
49
52
16
18
20
85
68
14
178
147
17
181
149
15
180
147
15
176
144
15
177
146
17
181
151
21
185
156
30
191
164
53
191
163
46
174
145
36
139
125
105
187
185
187
149
151
147
142
122
53
191
161
41
193
165
44
192
164
39
192
164
40
197
171
64
190
174
119
60
63
65
51
56
61
45
49
52
53
58
62
55
60
65
57
62
68
51
52
55
50
54
60
49
55
61
50
54
62
52
56
60
43
46
51
47
51
55
39
43
45
41
44
47
45
48
51
46
49
51
88
84
56
194
167
51
185
154
29
185
154
31
186
153
26
177
150
48
118
125
137
101
108
111
162
147
98
186
153
36
163
130
17
149
127
54
74
75
74
71
73
71
68
70
69
67
70
71
58
60
61
49
51
51
39
40
41
29
30
31
32
30
27
72
62
39
56
49
28
24
26
27
31
32
33
51
55
62
58
50
22
163
133
15
180
148
16
177
145
16
174
141
16
174
143
17
178
147
19
183
152
26
188
160
43
190
162
43
137
107
59
122
99
101
180
177
183
110
114
121
118
125
132
162
145
85
189
158
30
191
161
34
190
161
36
189
160
38
193
166
49
132
120
63
42
46
52
44
49
53
41
44
49
45
49
53
42
45
48
45
48
52
39
43
46
40
43
46
44
47
51
64
67
72
60
64
67
48
51
54
44
48
51
48
53
58
41
45
48
43
46
49
155
139
66
184
154
32
182
150
26
182
150
25
182
148
22
184
150
23
174
155
78
181
167
114
196
168
62
175
141
24
166
134
31
143
122
55
72
73
72
70
72
69
69
71
70
66
68
67
62
64
63
57
58
58
48
50
50
39
40
40
29
29
29
36
33
29
70
60
28
17
19
21
31
34
34
36
37
38
33
33
26
148
118
13
179
147
15
176
143
15
173
140
19
172
141
22
175
145
20
180
149
24
183
155
31
187
158
34
110
94
65
72
56
56
145
140
146
104
107
117
110
110
117
113
119
127
174
141
22
188
158
29
187
156
31
187
155
30
186
155
29
198
169
47
73
66
39
34
38
41
43
47
52
50
53
58
61
64
69
82
87
94
92
97
105
44
48
52
42
46
50
66
69
73
56
60
65
45
49
53
39
43
47
46
49
54
31
35
37
64
64
54
194
165
42
180
146
23
180
145
22
180
146
22
180
144
19
179
143
18
179
144
22
178
145
40
181
150
42
191
164
53
179
153
48
124
108
61
73
73
71
71
72
69
70
71
70
65
67
65
65
67
66
62
64
62
54
57
56
47
49
49
37
38
38
23
24
25
58
49
26
19
21
18
42
43
45
36
37
37
17
20
25
127
103
21
177
143
16
173
140
16
171
138
18
169
137
18
172
140
20
177
146
24
181
150
30
184
153
29
148
137
82
138
145
150
120
124
128
172
181
188
142
151
161
108
116
128
174
144
32
186
154
27
184
155
39
180
164
89
178
166
109
173
167
128
173
173
157
152
161
177
168
177
192
176
188
204
176
189
206
176
189
206
181
193
210
39
43
46
43
47
52
41
45
47
42
44
47
47
50
53
44
48
51
38
41
43
47
49
51
175
154
61
183
150
26
177
142
23
176
142
25
174
140
25
177
145
33
181
150
40
186
157
48
193
163
46
195
166
53
184
152
39
152
122
31
98
89
61
71
72
70
71
72
70
70
72
70
67
69
68
65
67
64
61
64
63
59
61
60
54
55
56
43
45
44
34
37
36
25
25
24
24
24
22
46
49
51
34
37
39
12
15
17
100
84
31
172
139
18
171
139
19
167
135
14
167
135
20
169
136
17
174
142
23
178
146
26
181
150
29
187
160
52
135
129
106
124
131
142
117
127
137
98
106
116
127
121
90
192
162
38
182
147
18
176
156
81
171
186
209
173
187
205
175
188
207
175
189
206
176
189
206
175
189
206
175
188
205
175
188
205
175
189
206
174
187
204
48
51
55
46
50
55
45
50
55
36
40
47
35
38
45
42
43
51
90
87
74
173
158
91
183
152
32
175
140
20
177
144
25
181
147
27
183
151
31
181
149
29
179
145
28
177
141
24
172
136
19
168
130
13
162
125
12
119
99
40
73
77
77
71
72
70
67
68
66
68
69
68
66
67
65
66
68
67
61
63
62
60
62
61
55
58
56
48
50
50
40
42
41
29
31
31
23
24
24
29
31
30
46
51
57
28
33
41
72
62
25
164
132
18
169
136
18
166
132
13
164
130
12
166
133
14
171
139
18
175
143
24
178
146
26
178
145
20
197
168
57
174
158
94
146
138
103
169
159
116
200
179
98
180
146
19
179
143
16
169
146
67
172
187
208
175
188
205
175
188
205
175
188
205
175
188
205
175
188
205
175
188
205
175
188
205
175
188
205
173
185
203
82
83
78
95
92
79
111
104
75
145
133
85
177
158
94
200
176
87
199
174
76
178
145
31
174
137
20
173
138
22
171
136
20
169
134
18
168
131
16
166
129
13
164
126
12
161
123
10
155
117
7
144
107
7
119
93
25
72
75
78
72
77
81
72
72
69
68
68
66
67
69
67
66
67
67
65
67
65
63
64
63
60
63
61
57
60
58
52
56
54
46
49
48
37
39
39
24
27
28
24
26
26
35
37
40
35
45
63
47
41
18
156
124
20
163
131
20
162
129
18
159
127
17
160
128
17
161
128
15
168
135
18
174
141
22
175
142
20
176
143
19
178
145
23
180
147
34
178
144
35
175
139
25
176
141
28
173
139
25
164
139
60
173
187
208
175
188
205
175
188
205
175
188
205
175
188
205
175
188
205
175
188
205
175
188
205
176
189
206
171
184
205
174
147
59
182
150
41
179
146
36
174
140
32
169
136
30
165
129
21
163
130
36
163
127
18
162
125
11
160
123
10
158
120
7
154
116
6
149
110
5
140
103
4
125
91
6
98
73
9
84
70
33
75
70
57
69
71
74
71
77
82
73
77
83
67
68
66
66
68
66
67
68
66
66
68
65
63
65
64
62
64
63
60
61
60
58
61
59
55
57
56
50
52
53
44
46
46
29
31
32
17
19
18
25
27
25
34
42
52
30
27
16
147
114
9
161
126
8
163
127
9
166
132
13
169
137
18
178
147
28
181
154
41
185
157
55
186
160
60
189
163
60
190
162
54
193
164
48
193
163
43
188
158
34
185
153
26
184
150
25
166
140
53
174
189
210
175
188
205
175
188
205
175
188
205
175
188
205
175
188
205
175
188
205
175
188
205
177
189
206
171
186
208
155
124
34
161
124
12
160
123
12
156
121
13
153
118
20
148
114
20
142
111
32
136
104
23
125
92
8
113
82
6
95
69
7
72
52
8
46
34
7
25
20
9
11
12
10
13
16
17
37
41
45
57
61
66
63
67
74
66
71
76
73
77
81
65
67
63
63
64
62
65
66
63
66
68
64
66
68
66
64
66
65
62
65
63
58
61
60
56
58
58
54
56
56
49
50
51
36
39
41
21
23
27
23
24
25
23
25
23
25
25
19
130
100
9
155
120
7
154
119
5
152
119
6
157
123
9
162
129
13
170
138
24
178
149
49
182
153
54
184
155
54
182
151
41
180
148
29
178
145
26
176
143
23
175
140
22
173
137
19
148
122
39
176
190
211
175
188
205
175
188
205
175
188
205
175
188
205
175
188
205
175
188
205
175
188
205
176
190
206
173
186
207
131
105
38
131
98
17
120
89
14
101
76
13
80
60
16
62
49
19
45
36
16
33
28
15
24
20
10
17
16
11
13
14
12
12
14
13
15
16
16
18
20
19
23
24
23
27
30
28
34
37
38
44
48
50
58
62
65
66
70
72
73
78
81
63
64
63
63
65
62
62
64
61
64
66
62
65
66
65
62
63
63
61
63
63
61
63
63
58
60
60
55
57
57
51
54
54
44
45
46
23
26
30
22
24
24
20
21
21
17
20
17
101
79
12
143
110
5
145
112
8
145
112
9
147
113
9
151
116
10
155
120
8
159
122
8
162
126
10
164
127
10
165
128
11
164
128
11
165
127
10
163
126
10
162
125
10
156
119
8
134
106
27
175
189
208
175
188
205
175
188
205
175
188
205
175
188
205
174
187
204
174
187
204
174
187
204
174
186
203
170
181
200
51
48
39
19
18
12
10
10
9
8
9
9
8
10
8
9
11
9
10
12
9
11
13
10
12
13
11
13
14
12
16
16
14
17
17
15
19
19
18
22
23
22
27
29
28
33
35
35
42
46
46
48
51
51
60
64
67
66
71
74
73
80
82
65
66
65
65
67
66
63
66
64
61
63
62
59
62
59
58
60
59
60
62
61
60
62
62
59
61
61
55
58
58
52
55
55
49
52
53
27
29
32
24
26
27
20
22
22
11
15
15
33
28
11
100
72
2
111
80
2
115
83
2
120
88
2
127
93
2
134
99
2
139
104
4
142
106
4
144
108
5
144
107
5
141
105
4
136
100
4
129
95
5
119
87
6
101
75
8
84
69
31
177
189
207
181
194
211
165
177
194
136
146
160
109
119
130
94
102
111
78
85
92
70
76
82
59
64
69
44
48
50
9
11
11
9
11
10
9
11
10
10
11
9
10
12
9
11
12
10
12
12
10
12
13
11
14
14
12
16
16
15
20
19
18
23
23
22
28
28
26
33
33
30
41
41
40
49
51
49
57
58
56
62
64
62
67
71
71
74
80
81
76
83
84
69
71
71
62
64
64
65
67
65
63
63
62
62
64
62
60
62
61
59
60
59
58
59
60
57
60
60
55
57
58
54
57
57
52
54
55
34
36
36
31
33
34
17
18
19
11
14
13
8
12
11
7
8
8
9
10
8
11
11
7
15
13
6
22
18
6
30
23
5
38
27
5
41
30
5
41
30
6
37
28
6
30
23
7
22
18
7
13
13
10
10
12
9
11
11
10
14
15
16
44
49
52
20
22
23
9
11
10
9
11
10
10
12
11
10
12
11
11
13
12
11
13
12
11
13
12
12
13
12
12
13
12
12
13
12
12
13
11
13
15
14
16
16
14
18
19
15
23
23
21
26
26
24
29
29
26
33
33
30
39
40
35
44
45
41
50
50
47
54
54
51
60
62
59
65
67
65
69
72
69
70
75
74
75
80
78
78
83
82
79
85
86
120
121
122
66
68
67
63
65
64
64
66
66
61
63
62
62
64
63
60
62
62
60
61
62
59
60
61
59
62
61
55
57
58
54
57
57
51
54
54
21
23
23
11
13
12
8
10
9
7
9
8
6
8
7
5
7
6
5
7
6
6
7
6
7
8
6
6
8
6
6
8
6
6
8
7
6
8
7
7
9
8
8
8
8
8
10
9
9
11
9
9
11
8
10
12
11
10
12
11
8
10
8
11
13
11
11
13
12
12
14
13
11
14
13
12
15
14
13
15
14
14
15
14
15
17
14
18
19
18
20
21
19
23
25
22
28
29
27
35
34
31
38
38
35
41
42
37
47
48
43
52
53
48
53
55
50
58
59
55
62
63
60
66
68
64
71
73
70
72
75
72
72
76
73
71
76
74
75
80
78
79
83
82
77
83
82
78
84
85
81
87
89
134
135
137
106
107
108
60
61
61
64
66
66
64
66
66
61
63
63
62
64
63
60
62
62
59
62
62
58
61
61
54
57
57
54
57
55
52
55
56
49
52
52
21
23
23
10
11
10
10
12
11
11
13
11
12
14
12
13
14
12
12
14
11
12
12
11
11
12
10
10
12
10
11
12
9
10
12
9
10
12
9
10
12
10
11
13
11
12
13
11
12
14
13
13
14
13
13
15
13
14
17
16
16
17
16
16
17
16
18
19
18
25
25
24
24
24
23
26
27
25
29
30
29
34
35
32
39
39
36
44
45
42
50
51
47
56
57
53
61
62
57
67
68
62
72
73
68
67
69
65
73
75
72
74
78
73
72
75
72
77
79
77
75
79
77
78
82
80
77
82
79
81
85
82
80
84
83
82
87
86
85
88
86
83
87
88
82
89
90
82
88
88
135
136
136
143
143
143
106
107
107
64
66
66
65
66
65
66
68
67
64
65
66
64
65
64
62
64
63
61
63
63
59
60
61
60
61
61
55
56
56
53
55
56
50
53
54
42
44
44
34
36
36
31
32
31
28
29
29
24
26
25
22
24
23
21
23
22
20
21
20
19
21
19
17
19
18
18
19
18
18
20
18
20
21
19
20
22
20
22
24
21
23
24
22
26
27
26
28
30
29
30
31
29
33
34
32
34
35
33
37
39
37
41
43
40
45
46
42
50
51
47
55
57
52
59
61
57
65
67
62
68
70
63
70
72
66
71
74
71
75
77
73
76
79
75
79
81
77
78
82
78
80
83
80
79
82
80
80
84
82
85
88
85
83
87
83
82
87
84
85
89
88
83
87
86
86
91
88
91
94
92
87
92
91
86
92
92
84
91
93
85
91
92
130
131
132
148
148
150
149
149
148
97
98
98
63
65
64
67
69
68
65
66
66
68
69
69
67
69
68
64
67
67
63
65
66
63
65
65
61
63
64
60
62
62
57
60
60
56
57
58
53
56
56
49
53
53
45
48
48
43
44
44
38
40
39
39
40
39
35
37
35
34
35
34
35
37
36
35
37
35
38
39
37
39
41
40
41
42
40
42
44
42
42
43
41
47
48
47
48
50
47
49
51
47
53
55
52
58
59
56
59
60
55
63
65
61
63
65
61
67
68
64
69
72
69
70
73
67
77
79
76
79
83
78
79
82
78
79
82
80
77
81
78
81
85
81
80
85
81
79
83
81
82
86
81
82
87
86
85
88
87
88
91
89
89
94
91
87
92
89
89
93
94
95
98
97
91
95
91
90
96
96
89
94
94
93
97
97
89
95
94
88
95
96
112
113
114
136
137
139
149
149
150
157
159
160
96
97
98
66
68
68
69
70
70
70
72
71
70
71
70
70
72
71
69
71
71
68
69
70
67
69
69
66
67
68
67
68
69
68
70
71
64
65
65
61
62
64
62
64
65
58
60
60
58
60
60
57
59
57
56
57
57
52
53
52
55
55
55
54
56
55
53
54
53
54
56
55
56
58
56
58
61
59
60
63
59
63
65
62
63
65
62
66
69
68
67
70
67
70
73
72
68
72
70
70
74
72
75
79
78
73
78
77
75
80
79
75
79
79
79
83
79
80
83
81
79
84
83
83
87
82
84
87
83
87
91
87
84
88
87
89
93
89
90
93
90
87
91
86
90
94
90
89
94
89
89
92
91
88
92
91
88
92
90
91
95
92
90
93
92
90
94
93
96
101
99
101
107
108
109
115
117
120
126
130
79
79
78
127
129
130
138
139
140
148
150
151
152
152
154
97
99
99
71
71
71
72
74
74
72
74
74
75
76
77
74
76
77
69
71
72
67
69
70
69
71
71
72
74
75
70
73
74
70
71
72
78
81
81
68
70
69
68
71
72
68
71
73
66
69
69
64
67
67
67
69
70
66
68
68
65
67
67
64
66
66
64
68
67
67
68
66
69
72
71
69
72
70
71
74
72
73
78
77
72
77
75
76
81
77
74
79
78
74
77
77
75
80
77
79
83
80
77
82
82
76
81
80
76
81
83
80
85
85
81
86
85
83
87
88
84
88
86
88
92
87
84
90
87
83
87
87
87
92
89
86
91
89
85
90
88
93
97
94
91
95
92
86
91
90
92
95
90
95
98
98
105
107
108
117
123
125
128
134
141
147
153
162
151
158
167
158
165
175
165
173
184
69
71
69
90
90
91
126
128
131
141
142
144
152
154
155
159
161
162
87
89
90
70
72
72
72
74
74
74
75
75
72
74
73
74
77
77
72
74
75
73
76
78
76
77
78
74
77
78
74
78
80
74
77
78
73
76
77
73
76
76
74
77
78
71
75
77
72
76
77
73
76
78
74
77
78
71
76
76
74
78
79
72
75
76
72
77
77
75
78
78
73
78
78
74
78
79
75
79
78
76
80
79
77
82
81
80
84
82
81
86
83
79
85
83
82
87
87
79
84
85
78
82
85
79
83
84
79
83
84
79
84
84
77
82
82
86
89
91
87
91
87
82
86
84
83
88
86
83
88
88
89
94
91
100
104
102
110
114
114
116
121
120
132
136
139
143
147
150
156
161
166
162
168
174
157
161
168
149
153
160
143
148
155
130
135
141
117
122
125
100
101
102
69
71
70
73
73
73
98
100
100
142
144
147
149
151
154
152
153
156
151
153
154
88
90
91
74
75
76
75
77
76
77
79
79
77
80
80
75
77
77
78
81
82
81
81
82
84
86
87
77
80
82
76
80
82
76
79
80
73
77
80
76
79
82
77
81
84
77
82
85
77
82
85
75
80
81
76
80
82
79
83
84
79
82
82
76
80
82
75
80
79
81
85
84
77
81
81
75
80
82
77
82
82
76
81
82
76
81
80
80
85
84
80
85
84
83
88
86
82
87
86
80
85
84
79
84
84
83
89
87
80
86
88
78
84
87
81
85
83
79
83
81
101
107
106
120
124
125
131
136
139
150
155
158
156
162
167
163
169
174
170
175
182
165
170
177
148
152
157
128
132
135
110
112
114
109
110
111
100
101
103
101
102
103
101
103
105
95
97
98
97
98
100
71
73
71
73
74
73
76
79
76
109
113
115
131
134
137
151
152
156
153
152
155
149
151
152
81
83
84
75
78
78
78
80
79
79
81
81
81
84
83
80
82
83
80
83
84
78
81
81
76
79
80
75
79
81
77
81
83
78
81
83
78
82
85
79
83
86
81
84
87
82
85
87
82
85
88
79
85
87
80
84
86
81
85
87
81
86
88
81
86
85
77
82
83
80
84
84
82
86
84
80
87
87
80
85
83
78
84
83
79
86
84
79
85
82
80
85
84
80
86
82
84
89
86
88
93
90
92
97
97
101
107
107
110
114
112
125
131
135
154
160
168
157
162
169
157
162
169
149
155
161
145
149
155
133
138
141
118
121
124
105
106
107
93
94
94
97
98
98
103
103
104
101
103
103
103
104
106
99
101
102
98
98
99
103
102
103
103
105
104
98
100
103
72
74
74
73
75
74
79
81
78
83
84
84
130
133
136
151
153
157
153
154
157
159
160
163
148
150
153
80
83
83
78
81
81
82
86
85
83
86
85
78
82
82
77
81
82
78
82
83
77
80
82
76
80
83
80
85
87
80
84
85
79
84
86
82
86
89
84
89
91
84
89
92
81
86
89
84
89
90
81
86
88
82
86
87
82
87
88
84
89
89
86
90
90
86
87
85
83
88
88
82
88
88
83
88
86
82
88
88
79
85
84
85
89
90
96
102
104
115
121
124
139
145
150
138
143
147
147
152
158
155
160
167
161
168
175
148
152
160
137
143
147
116
119
123
108
110
111
103
105
107
94
96
96
96
98
99
101
102
102
97
98
99
98
98
100
97
99
100
101
102
103
100
100
101
101
103
104
102
103
105
104
104
104
101
102
104
99
99
99
98
100
101
72
74
73
75
77
77
77
79
77
77
79
80
88
90
91
139
142
145
151
151
155
149
150
154
154
156
159
137
139
142
81
84
85
83
87
87
82
85
85
83
85
87
83
87
87
82
86
88
78
82
84
85
89
91
80
85
85
84
88
90
82
86
88
81
84
86
81
84
87
85
88
90
82
86
89
81
86
86
81
86
89
81
87
90
86
89
89
89
94
93
83
88
90
91
95
96
91
95
97
92
96
96
103
107
110
120
125
131
129
136
142
140
146
156
157
164
171
161
167
175
156
163
169
152
159
167
136
141
147
117
120
123
96
98
97
90
94
95
90
92
93
97
98
101
99
101
102
101
102
103
97
99
100
101
102
104
102
101
101
102
102
102
104
105
105
103
104
106
97
98
99
101
102
104
100
101
102
103
103
105
105
106
107
105
107
107
105
106
108
96
98
100
74
77
76
73
75
75
75
77
77
78
79
79
82
84
82
104
106
108
145
147
152
152
153
157
149
150
155
157
159
163
137
140
143
86
88
87
83
86
86
83
87
87
84
87
90
84
88
89
84
87
88
83
87
89
81
86
90
81
86
90
81
86
88
82
87
89
86
90
93
86
91
95
84
89
89
85
88
91
80
86
89
83
89
90
95
99
101
104
109
114
113
119
126
123
128
134
135
142
150
141
146
153
157
162
170
164
170
179
143
150
158
130
135
141
118
122
127
111
114
116
108
110
111
97
98
99
94
94
96
91
93
95
99
98
98
98
99
100
98
98
100
97
98
99
99
100
100
100
101
102
97
99
99
102
102
103
99
101
101
100
101
101
97
98
98
97
99
98
97
98
102
94
95
98
98
99
102
97
97
99
100
100
101
103
104
106
96
96
99
98
100
102
